#!OML:ASF Y:\EmotionMaleHayes\Project 1\Capture day 1\Session 1\Male1.ASF
:FULLY-SPECIFIED
:DEGREES
1063
root 19.7379 17.4419 0.0036018 208.021 90.5451 208.251
lowerback 6.74771 2.38919 -7.5132
upperback 6.42892 3.15907 -1.66679
thorax 2.63151 1.45449 2.32981
lowerneck -23.7476 1.46908 6.05611
upperneck 37.8969 2.49491 -4.09857
head 18.394 1.64056 -2.32745
rclavicle 1.21259e-014 -4.29375e-014
rhumerus 31.7414 15.4949 -49.0071
rradius 36.0814
rwrist 2.99479
rhand -3.32433 -26.9082
rfingers 7.12502
rthumb 22.4027 -55.6291
lclavicle 1.21259e-014 -4.29375e-014
lhumerus 37.1706 -20.8197 36.3143
lradius 41.0199
lwrist 0.657268
lhand -0.410693 -27.6785
lfingers 7.12502
lthumb 25.1969 0.678229
rfemur 1.07992 -4.17462 6.55565
rtibia 10.4846
rfoot -10.5223 -0.464847
rtoes -0.694383
lfemur 5.64155 -2.52622 -22.972
ltibia 11.4465
lfoot -13.2385 7.17603
ltoes -1.39639
1064
root 19.8004 17.4389 0.0106532 270.863 90.4361 271.255
lowerback 6.5915 2.28647 -7.67279
upperback 6.44485 3.03617 -1.71288
thorax 2.74405 1.385 2.38426
lowerneck -23.6695 1.49472 6.18002
upperneck 37.8623 2.54332 -4.23236
head 18.3628 1.65998 -2.40065
rclavicle -5.56597e-015 4.45278e-014
rhumerus 31.7694 15.4918 -48.9615
rradius 36.0523
rwrist 2.92333
rhand -3.60658 -26.7827
rfingers 7.12502
rthumb 22.1317 -55.536
lclavicle -5.56597e-015 4.45278e-014
lhumerus 37.3008 -20.8913 36.0588
lradius 41.121
lwrist 0.785585
lhand -0.412818 -27.7361
lfingers 7.12502
lthumb 25.1949 0.620838
rfemur 1.05181 -4.23908 6.30918
rtibia 10.3262
rfoot -10.6415 -0.561046
rtoes -0.267954
lfemur 6.05501 -2.7061 -23.2108
ltibia 11.4318
lfoot -13.2545 6.97426
ltoes -1.79576
1065
root 19.8592 17.4372 0.0188611 295.222 90.7475 295.761
lowerback 6.45603 2.27679 -7.8927
upperback 6.40596 3.02757 -1.77883
thorax 2.7755 1.3738 2.4428
lowerneck -23.5167 1.45849 6.20882
upperneck 37.8052 2.50279 -4.26801
head 18.2875 1.6455 -2.42882
rclavicle 1.49089e-014 -6.75868e-014
rhumerus 31.5606 15.3384 -49.0551
rradius 36.1967
rwrist 2.94638
rhand -3.54376 -26.8625
rfingers 7.12502
rthumb 22.192 -55.6086
lclavicle 1.49089e-014 -6.75868e-014
lhumerus 37.341 -21.0664 35.8885
lradius 41.298
lwrist 0.844892
lhand -0.519449 -27.6188
lfingers 7.12502
lthumb 25.0927 0.752543
rfemur 0.847955 -4.3986 5.99338
rtibia 10.4457
rfoot -10.536 -0.50221
rtoes -0.976966
lfemur 6.38674 -2.80026 -23.5218
ltibia 11.5118
lfoot -13.3482 6.82713
ltoes -2.60385
1066
root 19.9186 17.4323 0.0276853 289.22 91.0203 289.9
lowerback 6.31399 2.38601 -8.16605
upperback 6.31234 3.16934 -1.84757
thorax 2.73572 1.43832 2.51911
lowerneck -23.318 1.38875 6.14184
upperneck 37.7827 2.45235 -4.27111
head 18.2167 1.62083 -2.42683
rclavicle 1.45113e-014 -2.54444e-014
rhumerus 31.3506 15.2699 -49.0128
rradius 36.3171
rwrist 2.80958
rhand -3.17255 -27.1684
rfingers 7.12502
rthumb 22.5484 -55.8717
lclavicle 1.45113e-014 -2.54444e-014
lhumerus 37.3003 -21.1956 36.2305
lradius 41.3398
lwrist 0.520893
lhand -0.307183 -27.6167
lfingers 7.12502
lthumb 25.2961 0.725959
rfemur 0.49101 -4.52718 5.61931
rtibia 10.6625
rfoot -10.2633 -0.325432
rtoes -1.84949
lfemur 6.72909 -2.83723 -23.9216
ltibia 11.5455
lfoot -13.3991 6.91134
ltoes -2.55851
1067
root 19.9823 17.4278 0.0341613 302.429 91.1293 303.309
lowerback 6.22307 2.38437 -8.08356
upperback 6.28897 3.17564 -1.8204
thorax 2.76203 1.4425 2.50493
lowerneck -23.345 1.33517 6.0682
upperneck 37.8231 2.42067 -4.29725
head 18.2428 1.59677 -2.43353
rclavicle -1.98785e-016 2.38542e-014
rhumerus 31.3648 15.2529 -48.8373
rradius 36.2997
rwrist 2.66576
rhand -3.18803 -27.1626
rfingers 7.12502
rthumb 22.5335 -55.8677
lclavicle -1.98785e-016 2.38542e-014
lhumerus 37.2968 -21.2125 36.5504
lradius 41.3193
lwrist 0.119988
lhand -0.164732 -27.846
lfingers 7.12502
lthumb 25.4326 0.477281
rfemur 0.405256 -4.60514 5.60149
rtibia 10.6122
rfoot -10.072 -0.374519
rtoes -2.1807
lfemur 7.11561 -3.05245 -23.9721
ltibia 11.6112
lfoot -13.2479 6.94061
ltoes -2.23906
1068
root 20.0478 17.4225 0.0338085 309.169 91.8678 310.3
lowerback 6.1105 2.25312 -8.45213
upperback 6.36377 3.01775 -1.93897
thorax 2.91557 1.3492 2.59993
lowerneck -23.499 1.32923 6.11296
upperneck 37.8763 2.41407 -4.37196
head 18.3153 1.59015 -2.48041
rclavicle 1.86858e-014 2.38542e-014
rhumerus 31.4656 15.1858 -48.7905
rradius 36.3006
rwrist 2.65038
rhand -3.55181 -26.9467
rfingers 7.12502
rthumb 22.1843 -55.6938
lclavicle 1.86858e-014 2.38542e-014
lhumerus 37.3437 -21.1682 36.567
lradius 41.3486
lwrist -0.0924704
lhand -0.23212 -27.9851
lfingers 7.12502
lthumb 25.368 0.347363
rfemur 0.565322 -5.14034 4.82138
rtibia 10.5427
rfoot -9.89382 -0.147897
rtoes -1.45589
lfemur 7.56759 -3.32091 -24.6872
ltibia 11.7447
lfoot -13.1488 6.79485
ltoes -2.78696
1069
root 20.1089 17.416 0.0358906 303.278 92.8453 304.665
lowerback 5.9903 2.19904 -9.35176
upperback 6.44708 2.95612 -2.14746
thorax 3.06455 1.28753 2.88912
lowerneck -23.5248 1.44319 6.27547
upperneck 37.8391 2.57069 -4.50691
head 18.3207 1.65564 -2.53769
rclavicle 1.49089e-014 -2.06736e-014
rhumerus 31.5755 15.2065 -48.6534
rradius 36.3898
rwrist 2.5128
rhand -3.72724 -26.96
rfingers 7.12502
rthumb 22.0159 -55.7269
lclavicle 1.49089e-014 -2.06736e-014
lhumerus 37.4552 -21.108 36.5626
lradius 41.3779
lwrist -0.0972758
lhand -0.140309 -27.9664
lfingers 7.12502
lthumb 25.456 0.353604
rfemur 0.621023 -5.61064 3.51193
rtibia 10.5244
rfoot -9.64634 0.131825
rtoes 0.274428
lfemur 8.05367 -3.38365 -25.8768
ltibia 11.8122
lfoot -13.1904 6.67676
ltoes -3.27494
1070
root 20.1507 17.4146 0.0521749 304.369 92.9559 305.913
lowerback 6.09891 2.25324 -9.5095
upperback 6.36945 2.99935 -2.10338
thorax 2.90937 1.30953 3.01352
lowerneck -23.6009 1.45752 6.25833
upperneck 37.8688 2.61151 -4.53458
head 18.3616 1.66649 -2.53951
rclavicle 2.04748e-014 -4.6118e-014
rhumerus 31.6792 15.3429 -48.378
rradius 36.4108
rwrist 2.22574
rhand -3.56421 -27.2282
rfingers 7.12502
rthumb 22.1724 -55.9767
lclavicle 2.04748e-014 -4.6118e-014
lhumerus 37.5212 -21.1812 36.5019
lradius 41.4602
lwrist -0.00139075
lhand 0.0277097 -27.8968
lfingers 7.12502
lthumb 25.6169 0.400143
rfemur 0.269153 -5.01965 3.60313
rtibia 10.5369
rfoot -9.7052 -0.449716
rtoes 1.31271
lfemur 8.22942 -3.34599 -25.8106
ltibia 11.9794
lfoot -13.2433 6.73101
ltoes -3.70793
1071
root 20.1827 17.4161 0.0808484 313.592 92.4847 315.295
lowerback 6.3901 2.34908 -9.03152
upperback 6.2306 3.08058 -1.87859
thorax 2.59084 1.37407 2.96386
lowerneck -23.7798 1.39827 6.19946
upperneck 37.9894 2.54939 -4.54338
head 18.4715 1.63544 -2.55079
rclavicle -1.98785e-014 1.43125e-014
rhumerus 31.7123 15.2532 -48.3307
rradius 36.3279
rwrist 2.21845
rhand -3.30118 -27.4395
rfingers 7.12502
rthumb 22.4249 -56.1578
lclavicle -1.98785e-014 1.43125e-014
lhumerus 37.5874 -21.331 36.371
lradius 41.5559
lwrist 0.037693
lhand 0.0472786 -27.8585
lfingers 7.12502
lthumb 25.6357 0.435719
rfemur -0.152443 -3.76189 4.76679
rtibia 10.4779
rfoot -9.9533 -1.62931
rtoes 0.692967
lfemur 8.22666 -3.36243 -24.775
ltibia 12.3197
lfoot -13.3156 6.88419
ltoes -4.33841
1072
root 20.217 17.4168 0.109872 329.209 92.0848 331.11
lowerback 6.61182 2.44181 -8.44323
upperback 6.14228 3.1805 -1.63384
thorax 2.36745 1.44572 2.87551
lowerneck -23.8701 1.32807 6.22346
upperneck 38.0859 2.47595 -4.63517
head 18.5469 1.6014 -2.61794
rclavicle 1.80894e-014 2.62396e-014
rhumerus 31.6314 14.9998 -48.4124
rradius 36.3152
rwrist 2.51178
rhand -3.25903 -27.4575
rfingers 7.12502
rthumb 22.4654 -56.1708
lclavicle 1.80894e-014 2.62396e-014
lhumerus 37.6756 -21.3554 36.4029
lradius 41.6433
lwrist -0.0701625
lhand 0.119985 -27.9052
lfingers 7.12502
lthumb 25.7053 0.379033
rfemur -0.477352 -2.68234 5.9919
rtibia 10.3496
rfoot -9.96255 -2.65818
rtoes 0.0580149
lfemur 8.30663 -3.46174 -23.6694
ltibia 12.6999
lfoot -13.4317 6.91187
ltoes -3.53519
1073
root 20.2527 17.4173 0.132624 351.665 92.0168 353.724
lowerback 6.73582 2.47595 -7.7191
upperback 6.03935 3.22137 -1.39729
thorax 2.19706 1.48924 2.70951
lowerneck -23.7511 1.28074 6.38377
upperneck 38.1417 2.43161 -4.81035
head 18.55 1.59041 -2.74
rclavicle 1.86858e-014 -1.90833e-014
rhumerus 31.5076 14.8992 -48.378
rradius 36.3687
rwrist 2.62871
rhand -3.4462 -27.3745
rfingers 7.12502
rthumb 22.2857 -56.1094
lclavicle 1.86858e-014 -1.90833e-014
lhumerus 37.8558 -21.5158 36.2089
lradius 41.7926
lwrist 0.0812378
lhand 0.33897 -27.932
lfingers 7.12502
lthumb 25.915 0.321654
rfemur -0.808278 -1.86446 7.18203
rtibia 10.2765
rfoot -9.95994 -3.43354
rtoes 0.593406
lfemur 8.44247 -3.62589 -22.5732
ltibia 13.0016
lfoot -13.6801 6.76463
ltoes -1.44554
